<svg id="icon--top-nav-bar--grey-heart" data-name="Layer 1" viewBox="-14.55 -14.55 223.1 223.1" width="46" height="46" x="322" y="276" xmlns="http://www.w3.org/2000/svg"><defs><style>.cpcls-1{fill:none}.cpcls-2{fill:#828282}.cls-3{clip-path:url(#cpclip-path)}.cls-4{clip-path:url(#cpclip-path-2)}.cls-5{clip-path:url(#cpclip-path-3)}.cls-6{clip-path:url(#cpclip-path-4)}</style><clipPath id="cpclip-path"><path class="cpcls-1" d="M3672.93 2034.43l-27.18-55.09-27.22 55.09-60.77 8.87 44.07 42.9-10.4 60.53 54.35-28.62 54.47 28.56-10.42-60.57 43.93-42.86-60.83-8.81z"/></clipPath><clipPath id="cpclip-path-2"><path class="cpcls-1" d="M3901.7 2118.13v-138.72l-.05-.11-27.09 55.12-60.86 8.85 44.05 42.91-10.39 60.55 54.34-28.6z"/></clipPath><clipPath id="cpclip-path-3"><path class="cpcls-1" d="M3989.7 2043.29l-60.79-8.81-27.21-55.01v138.72l.05-.02 54.45 28.56-10.46-60.58 43.96-42.86z"/></clipPath><clipPath id="cpclip-path-4"><path class="cpcls-1" d="M4188.31 2034.42l-27.26-55.12-27.09 55.12-60.85 8.85 44.04 42.91-10.38 60.55 54.38-28.62 54.45 28.56-10.46-60.58 43.97-42.86-60.8-8.81z"/></clipPath></defs><path class="cpcls-2" d="M96.87 55.3c-1.11-1.19-1.84-2-2.56-2.85A43.64 43.64 0 0 0 44 39.54C27.21 46.39 14.84 64.92 17.32 84c1.06 8.09 4.3 15.43 8.5 22.27 16.64 27.19 40.37 46.41 68.55 60.52 1.39.72 4 .37 5.55-.45a204.33 204.33 0 0 0 47.58-34.76c11-10.89 20.73-22.75 26.37-37.44 6.53-17.07 2.69-32.36-9.64-45-12.23-12.41-27.44-15.78-44.3-10.8-9.49 2.78-16.76 8.77-23.06 16.96z"/></svg>