<svg id="icon--top-nav-bar--search-magnify-gray" data-name="Layer 1" viewBox="-14.55 -14.55 223.1 223.1" width="46" height="46" x="92" y="46" xmlns="http://www.w3.org/2000/svg"><defs><style>.dhcls-1{fill:none}.dhcls-2{fill:#FFF}.cls-3{clip-path:url(#dhclip-path)}.cls-4{clip-path:url(#dhclip-path-2)}.cls-5{clip-path:url(#dhclip-path-3)}.cls-6{clip-path:url(#dhclip-path-4)}.dhcls-7{clip-path:url(#dhclip-path-5)}</style><clipPath id="dhclip-path"><path class="dhcls-1" d="M-484.77 2032.58l-27.19-55.1-27.21 55.1-60.78 8.86 44.07 42.9-10.4 60.53 54.36-28.61 54.46 28.55-10.42-60.57 43.93-42.86-60.82-8.8z"/></clipPath><clipPath id="dhclip-path-2"><path class="dhcls-1" d="M-256 2116.27v-138.72l-.05-.11-27.1 55.12-60.85 8.85 44.04 42.91-10.38 60.55 54.34-28.6z"/></clipPath><clipPath id="dhclip-path-3"><path class="dhcls-1" d="M-168 2041.43l-60.8-8.81-27.2-55.01v138.72l.04-.02 54.46 28.56-10.47-60.58 43.97-42.86z"/></clipPath><clipPath id="dhclip-path-4"><path class="dhcls-1" d="M30.6 2032.56l-27.25-55.12-27.1 55.12-60.85 8.85 44.05 42.91-10.39 60.55 54.39-28.62 54.45 28.56-10.46-60.58 43.96-42.86-60.8-8.81z"/></clipPath><clipPath id="dhclip-path-5"><path class="dhcls-2" d="M-1058.84 759.44v-54.63l-21.56 21.56c-12.94-13.66-30.91-21.56-51-21.56a72.39 72.39 0 0 0-72.6 72.6 72.39 72.39 0 0 0 72.57 72.59c20.12 0 38.09-7.91 51-21.56l-12.94-12.94a53.85 53.85 0 0 1-38.09 15.81 54.6 54.6 0 0 1-54.63-54.62 54.6 54.6 0 0 1 54.63-54.63c15.09 0 28.75 5.75 38.09 15.81l-20.12 21.56h54.63z"/></clipPath></defs><title>ar</title><path class="dhcls-2" d="M88.53 150.49a59.81 59.81 0 0 1-42.86-18.09 62.69 62.69 0 0 1 0-87.31 59.79 59.79 0 0 1 85.7 0 62.56 62.56 0 0 1 0 87.31 59.72 59.72 0 0 1-42.84 18.09zm0-103.07a39.94 39.94 0 0 0-28.66 12.11 41.89 41.89 0 0 0 0 58.41 40 40 0 0 0 57.3 0 41.87 41.87 0 0 0 0-58.41 40 40 0 0 0-28.64-12.12z"/><path class="dhcls-2" d="M157.92 170a10 10 0 0 1-7.09-3l-30.39-31a10.3 10.3 0 0 1 0-14.42 9.87 9.87 0 0 1 14.18 0L165 152.55a10.32 10.32 0 0 1 0 14.45 10 10 0 0 1-7.08 3zM-1058.84 759.44v-54.63l-21.56 21.56c-12.94-13.66-30.91-21.56-51-21.56a72.39 72.39 0 0 0-72.6 72.6 72.39 72.39 0 0 0 72.57 72.59c20.12 0 38.09-7.91 51-21.56l-12.94-12.94a53.85 53.85 0 0 1-38.09 15.81 54.6 54.6 0 0 1-54.63-54.62 54.6 54.6 0 0 1 54.63-54.63c15.09 0 28.75 5.75 38.09 15.81l-20.12 21.56h54.63z"/><g class="dhcls-7"><path class="dhcls-2" d="M-1620.9-6842.06h11967.19V5779.19H-1620.9z"/></g></svg>