<svg id="icon--top-nav-bar--nav-bell" data-name="Layer 1" viewBox="-14.55 -14.55 223.1 223.1" width="46" height="46" x="92" y="276" xmlns="http://www.w3.org/2000/svg"><defs><style>.djcls-1{fill:#e57225}</style></defs><title>ar</title><path xmlns="http://www.w3.org/2000/svg" class="djcls-1" d="M185.77 103.85c0-47.24-38.74-85.54-86.51-85.54s-86.49 38.3-86.49 85.54a85 85 0 0 0 31.3 65.83v-33.75a6.52 6.52 0 0 1 .32-2 6.69 6.69 0 0 1 .92-1.79 7 7 0 0 1 1.78-1.69c4.78-4.3 14.6-11.49 30-15.4a34.21 34.21 0 0 1-12.7-26.58 34.86 34.86 0 0 1 69.72 0 34.23 34.23 0 0 1-12.4 26.35c22.15 5.31 31.36 17.16 31.36 17.16v.06a6.63 6.63 0 0 1 1 1.9 6.73 6.73 0 0 1 .34 2v33.75a85 85 0 0 0 31.36-65.84z"/></svg>