<svg xmlns="http://www.w3.org/2000/svg" xmlns:xlink="http://www.w3.org/1999/xlink" version="1.1" id="Layer_1" x="0px" y="0px" width="96.438px" height="36.834px" viewBox="-0.452 -0.416 96.438 36.834" enable-background="new -0.452 -0.416 96.438 36.834" xml:space="preserve">
<g>
	<path fill="#FEAA26" d="M91.903 0c-1.208 0-2.135 0.5-2.742 1.502c-0.716 1.147-1.072 2.4-1.072 3.8 c0 1.8 0.4 3.3 1.3 4.501c0.373 0.5 0.9 1.1 1.2 1.593c0.226 0.3 0.4 0.8 0.4 1.3 c0.023 1.827-1.169 15.275-1.181 15.31c-0.051 0.264-0.012 0.7 0.1 0.928c0.24 0.8 1 1.5 1.9 1.463l0 0 c0.909 0 1.697-0.613 1.938-1.461c0.07-0.24 0.109-0.664 0.06-0.928c-0.009-0.037-1.202-13.485-1.179-15.312 c0.021-0.458 0.195-1.001 0.418-1.271c0.367-0.444 0.871-1.059 1.246-1.594c0.894-1.236 1.336-2.734 1.336-4.501 c0-1.358-0.356-2.609-1.072-3.757C94.041 0.5 93.1 0 91.9 0L91.903 0z"/>
</g>
</svg>