<?xml version="1.0" standalone="no"?>
<!DOCTYPE svg PUBLIC "-//W3C//DTD SVG 20010904//EN"
 "http://www.w3.org/TR/2001/REC-SVG-20010904/DTD/svg10.dtd">
<svg version="1.0" xmlns="http://www.w3.org/2000/svg"
 width="512.000000pt" height="512.000000pt" viewBox="0 0 512.000000 512.000000"
 preserveAspectRatio="xMidYMid meet">
<metadata>
Created by potrace 1.14, written by Peter Selinger 2001-2017
</metadata>
<g transform="translate(0.000000,512.000000) scale(0.100000,-0.100000)"
fill="#000000" stroke="none">
<path d="M0 2560 l0 -2560 2560 0 2560 0 0 2560 0 2560 -2560 0 -2560 0 0
-2560z m1280 785 c0 -8 7 -15 15 -15 13 0 15 -33 15 -239 0 -132 4 -242 8
-245 15 -9 52 6 52 20 0 8 9 14 20 14 11 0 20 6 20 14 0 8 14 17 30 21 17 4
30 10 30 15 0 4 12 11 27 15 15 3 31 12 35 18 10 17 220 17 225 0 3 -7 20 -15
39 -19 19 -3 34 -12 34 -20 0 -8 7 -14 15 -14 8 0 15 -7 15 -15 0 -8 7 -15 15
-15 8 0 15 -7 15 -15 0 -8 7 -15 15 -15 8 0 15 -9 15 -20 0 -11 6 -20 14 -20
9 0 15 -18 18 -57 3 -31 10 -59 16 -61 15 -5 17 -582 3 -582 -5 0 -12 -13 -16
-30 -6 -29 -8 -30 -65 -30 -51 0 -58 2 -64 23 -3 12 -6 142 -6 289 0 192 -3
267 -12 270 -6 2 -13 30 -16 61 -3 39 -9 57 -18 57 -8 0 -14 7 -14 15 0 8 -7
15 -15 15 -8 0 -15 6 -15 14 0 19 -32 26 -133 26 -67 0 -89 -3 -93 -14 -3 -8
-19 -18 -35 -21 -16 -4 -29 -13 -29 -21 0 -8 -9 -14 -20 -14 -11 0 -20 -7 -20
-15 0 -8 -7 -15 -15 -15 -8 0 -15 -7 -15 -15 0 -8 -7 -15 -15 -15 -8 0 -15 -6
-15 -14 0 -8 -7 -16 -15 -20 -13 -5 -15 -46 -15 -291 0 -247 -2 -285 -15 -285
-8 0 -15 -7 -15 -15 0 -11 -12 -15 -50 -15 -36 0 -50 4 -50 14 0 8 -6 16 -12
18 -10 4 -14 137 -16 611 -2 524 0 607 12 607 8 0 17 14 21 30 6 28 10 30 51
30 32 0 44 -4 44 -15z m-511 -383 c4 -8 27 -16 50 -19 25 -4 41 -11 41 -19 0
-9 11 -14 30 -14 20 0 30 -5 30 -15 0 -8 9 -15 20 -15 17 0 20 -7 20 -44 0
-39 -3 -45 -27 -51 -15 -3 -33 -14 -40 -23 -12 -15 -14 -16 -26 -1 -6 9 -29
18 -51 22 -21 3 -44 13 -50 22 -10 14 -30 16 -129 13 -76 -2 -120 -7 -125 -15
-4 -6 -20 -15 -35 -18 -15 -4 -27 -13 -27 -21 0 -8 -9 -14 -20 -14 -11 0 -20
-7 -20 -15 0 -8 -7 -15 -15 -15 -8 0 -15 -7 -15 -15 0 -8 -7 -15 -15 -15 -10
0 -15 -10 -15 -30 0 -20 -5 -30 -15 -30 -13 0 -15 -21 -15 -130 0 -109 2 -130
15 -130 8 0 15 -9 15 -20 0 -11 6 -20 14 -20 8 0 17 -13 21 -30 4 -16 13 -30
21 -30 8 0 14 -7 14 -15 0 -10 10 -15 30 -15 20 0 30 -5 30 -15 0 -11 12 -15
45 -15 31 0 47 -5 51 -15 7 -18 130 -22 136 -4 2 5 22 13 46 16 26 3 42 11 42
19 0 10 17 14 65 14 51 0 65 -3 65 -15 0 -8 7 -15 15 -15 10 0 15 -11 15 -35
0 -24 -5 -35 -15 -35 -8 0 -15 -7 -15 -15 0 -8 -9 -15 -20 -15 -11 0 -20 -7
-20 -15 0 -11 -12 -15 -45 -15 -31 0 -45 -4 -45 -14 0 -9 -19 -15 -62 -19 -34
-3 -64 -10 -66 -16 -5 -15 -59 -14 -64 0 -2 7 -36 14 -81 17 -56 3 -77 8 -77
18 0 9 -12 14 -35 14 -24 0 -35 5 -35 14 0 8 -13 17 -30 21 -16 4 -30 11 -30
16 0 5 -7 9 -15 9 -8 0 -15 9 -15 20 0 11 -7 20 -15 20 -8 0 -15 7 -15 15 0 8
-6 15 -14 15 -8 0 -17 14 -21 30 -4 17 -13 30 -21 30 -9 0 -14 11 -14 35 0 24
-5 35 -15 35 -13 0 -15 24 -15 160 0 129 3 160 14 160 8 0 16 16 19 42 3 24
11 44 16 46 6 2 11 8 11 14 0 14 75 88 89 88 6 0 11 7 11 15 0 8 7 15 15 15 8
0 15 7 15 15 0 8 9 15 19 15 11 0 26 6 33 14 8 7 29 17 46 21 18 3 32 10 32
15 0 22 275 24 289 2z m2020 0 c4 -8 27 -16 50 -19 25 -4 41 -11 41 -19 0 -9
11 -14 30 -14 20 0 30 -5 30 -15 0 -8 7 -15 15 -15 8 0 15 -7 15 -15 0 -8 9
-15 20 -15 13 0 20 -7 20 -20 0 -11 7 -20 15 -20 10 0 15 -10 15 -30 0 -20 5
-30 15 -30 10 0 15 -10 15 -30 0 -17 7 -33 17 -38 14 -8 16 -32 17 -172 0
-143 -2 -163 -17 -171 -12 -7 -17 -23 -17 -54 0 -33 -4 -45 -15 -45 -8 0 -15
-7 -15 -15 0 -8 -7 -15 -15 -15 -8 0 -15 -5 -15 -11 0 -15 -42 -59 -57 -59 -7
0 -13 -7 -13 -15 0 -8 -7 -15 -15 -15 -8 0 -15 -7 -15 -15 0 -10 -11 -15 -35
-15 -23 0 -35 -5 -35 -14 0 -10 -21 -15 -77 -18 -45 -3 -79 -10 -81 -17 -5
-14 -49 -14 -54 0 -2 7 -36 14 -81 17 -56 3 -77 8 -77 18 0 9 -12 14 -35 14
-24 0 -35 5 -35 15 0 8 -7 15 -15 15 -8 0 -15 7 -15 15 0 8 -6 15 -12 15 -16
0 -58 44 -58 59 0 6 -7 11 -15 11 -8 0 -15 7 -15 15 0 8 -7 15 -15 15 -11 0
-15 12 -15 50 0 38 -4 50 -15 50 -13 0 -15 24 -15 160 0 136 2 160 15 160 11
0 15 12 15 45 0 33 4 45 15 45 8 0 15 9 15 20 0 11 9 28 20 37 11 10 20 23 20
30 0 7 7 13 15 13 8 0 15 7 15 15 0 8 7 15 15 15 8 0 15 7 15 15 0 10 10 15
30 15 19 0 30 5 30 14 0 8 16 15 41 19 23 3 45 10 48 15 11 17 43 21 154 19
76 -2 110 -6 116 -15z m571 -7 c0 -8 6 -15 14 -15 8 0 15 -16 19 -41 3 -23 10
-45 15 -48 5 -3 12 -26 16 -51 4 -24 12 -47 17 -51 6 -3 13 -26 16 -50 4 -24
12 -50 20 -57 7 -8 13 -35 13 -63 0 -37 4 -49 15 -49 11 0 15 -12 15 -50 0
-38 4 -50 15 -50 11 0 15 -12 15 -45 0 -33 4 -45 15 -45 10 0 15 -11 15 -35 0
-28 4 -35 20 -35 16 0 20 7 20 31 0 17 7 37 15 45 9 10 15 34 15 65 0 37 4 49
15 49 11 0 15 12 15 50 0 38 4 50 15 50 11 0 15 12 15 45 0 26 5 47 13 52 8 4
17 26 20 47 4 22 11 42 16 45 6 4 13 27 17 51 4 25 11 48 16 51 5 3 12 25 15
47 5 35 10 42 34 47 16 4 29 11 29 16 0 15 57 10 64 -6 3 -8 12 -15 21 -15 8
0 15 -7 15 -15 0 -8 7 -15 15 -15 12 0 15 -13 15 -60 0 -44 4 -60 14 -60 9 0
15 -16 19 -46 2 -26 9 -49 14 -53 6 -3 13 -26 16 -50 3 -24 11 -47 17 -51 6
-4 14 -27 17 -51 4 -24 12 -50 20 -57 7 -8 13 -35 13 -63 0 -37 4 -49 15 -49
11 0 15 -12 15 -50 0 -38 4 -50 15 -50 8 0 15 7 15 15 0 8 6 15 14 15 9 0 15
16 19 46 2 26 10 50 17 54 6 4 14 27 17 51 3 24 11 47 16 51 6 3 12 31 15 62
3 39 9 56 18 56 10 0 14 14 14 50 0 38 4 50 15 50 11 0 15 12 15 45 0 26 5 47
13 52 8 4 17 26 20 47 4 22 10 42 15 45 5 3 11 14 15 24 3 9 13 17 22 17 8 0
15 5 15 10 0 6 14 10 30 10 20 0 30 -5 30 -15 0 -8 6 -15 14 -15 7 0 16 -9 19
-20 8 -30 -4 -103 -20 -118 -7 -7 -13 -29 -13 -48 0 -24 -5 -34 -15 -34 -11 0
-15 -12 -15 -50 0 -38 -4 -50 -15 -50 -11 0 -15 -12 -15 -45 0 -31 -4 -45 -14
-45 -9 0 -15 -16 -19 -46 -2 -26 -10 -50 -17 -54 -6 -4 -14 -27 -17 -51 -4
-24 -12 -50 -20 -57 -7 -7 -13 -29 -13 -48 0 -24 -5 -34 -15 -34 -11 0 -15
-12 -15 -50 0 -38 -4 -50 -15 -50 -10 0 -15 -10 -15 -30 0 -20 -5 -30 -15 -30
-8 0 -15 -7 -15 -15 0 -12 -14 -15 -65 -15 -51 0 -65 3 -65 15 0 8 -7 15 -15
15 -8 0 -15 7 -15 15 0 7 -7 18 -17 23 -11 7 -18 27 -21 66 -3 39 -9 56 -18
56 -10 0 -14 13 -14 45 0 33 -4 45 -15 45 -11 0 -15 12 -15 50 0 38 -4 50 -15
50 -11 0 -15 12 -15 45 0 26 -5 47 -13 52 -8 4 -17 26 -20 48 -4 22 -11 41
-16 43 -6 2 -13 19 -17 38 -9 49 -28 37 -32 -19 -2 -33 -7 -47 -18 -47 -10 0
-14 -13 -14 -50 0 -38 -4 -50 -15 -50 -11 0 -15 -12 -15 -45 0 -31 -4 -45 -14
-45 -9 0 -15 -16 -19 -46 -2 -26 -11 -50 -18 -54 -6 -5 -14 -33 -17 -64 -3
-39 -9 -56 -18 -56 -9 0 -14 -12 -14 -35 0 -24 -5 -35 -15 -35 -8 0 -15 -7
-15 -15 0 -8 -7 -15 -15 -15 -8 0 -15 -7 -15 -15 0 -12 -14 -15 -65 -15 l-65
0 0 30 c0 20 -5 30 -15 30 -10 0 -15 10 -15 30 0 16 -6 33 -13 37 -8 4 -17 26
-20 47 -4 22 -11 43 -18 46 -6 4 -14 28 -16 54 -4 30 -10 46 -19 46 -10 0 -14
14 -14 45 0 33 -4 45 -15 45 -11 0 -15 12 -15 50 0 38 -4 50 -15 50 -10 0 -15
10 -15 34 0 19 -6 41 -13 48 -8 7 -16 33 -20 57 -3 24 -10 47 -17 51 -6 4 -13
24 -17 46 -3 21 -12 43 -20 47 -43 26 23 125 85 126 22 1 32 -4 32 -14z"/>
<path d="M2548 2814 c-10 -3 -18 -9 -18 -14 0 -5 -13 -11 -29 -15 -16 -3 -32
-13 -35 -21 -3 -8 -12 -14 -21 -14 -8 0 -15 -7 -15 -15 0 -8 -7 -15 -15 -15
-11 0 -15 -12 -15 -45 0 -33 -4 -45 -15 -45 -13 0 -15 -21 -15 -130 0 -109 2
-130 15 -130 10 0 15 -11 15 -35 0 -24 5 -35 15 -35 8 0 15 -7 15 -15 0 -8 7
-15 15 -15 8 0 15 -7 15 -15 0 -8 9 -15 20 -15 11 0 20 -7 20 -15 0 -10 10
-15 30 -15 20 0 30 -5 30 -15 0 -12 17 -15 95 -15 78 0 95 3 95 15 0 10 10 15
30 15 20 0 30 5 30 15 0 8 9 15 20 15 11 0 20 7 20 15 0 8 7 15 15 15 8 0 15
7 15 15 0 8 7 15 15 15 10 0 15 11 15 35 0 23 5 35 14 35 10 0 15 19 18 70 6
114 -2 210 -18 210 -9 0 -14 12 -14 35 0 24 -5 35 -15 35 -8 0 -15 7 -15 15 0
8 -7 15 -15 15 -8 0 -15 7 -15 15 0 8 -9 15 -19 15 -11 0 -27 8 -37 17 -14 14
-38 18 -123 20 -58 1 -114 -1 -123 -3z"/>
</g>
</svg>
